<?xml version="1.0" encoding="utf-8"?>
<!-- Generator: Adobe Illustrator 16.0.0, SVG Export Plug-In . SVG Version: 6.00 Build 0)  -->
<!DOCTYPE svg PUBLIC "-//W3C//DTD SVG 1.1//EN" "http://www.w3.org/Graphics/SVG/1.1/DTD/svg11.dtd">
<svg version="1.1" xmlns="http://www.w3.org/2000/svg" xmlns:xlink="http://www.w3.org/1999/xlink" x="0px" y="0px"
	 width="566.93px" height="670.93px" viewBox="0 0 566.93 670.93" enable-background="new 0 0 566.93 670.93" xml:space="preserve">
<g id="Layer_2_1_">
	<polygon fill="#ED1C24" points="391.465,226.715 431.215,204.09 430.8,64.464 391.34,86.84 	"/>
</g>
<g id="Layer_1">
	<g id="Layer_2" display="none">
		<rect y="104" display="inline" fill="#FF0021" width="566.93" height="566.929"/>
		<g display="inline">
			<polyline fill="#FFEB36" points="625.281,-30.609 661.281,-10.314 590.044,60.717 554.617,41.326 625.281,-30.609 			"/>
			<polygon fill="#FF0021" points="590.007,80.657 660.798,40.167 661.281,-10.314 590.044,60.717 			"/>
			<polygon fill="#0091FF" points="555.29,59.814 554.617,41.326 590.044,60.717 590.007,80.657 			"/>
		</g>
	</g>
	<polyline fill="#FFFFFF" points="391.247,87.57 429.884,64.381 391.312,41.95 352.43,64.52 351.537,204.407 391.312,227.2 	"/>
	<polygon fill="#FFFFFF" points="430.866,250.439 431.312,296.025 471.981,272.785 471.089,227.646 	"/>
	<polygon fill="#FFFFFF" points="350.866,343.622 391.09,320.159 431.536,343.398 511.758,297.143 511.981,342.952 431.535,389.656 
		391.312,366.191 351.536,389.656 	"/>
	<polygon fill="#FFFFFF" points="270.419,296.919 270.196,343.174 190.42,296.472 190.42,250.438 	"/>
	<polygon fill="#FFFFFF" points="190.421,436.357 230.085,459.039 229.974,505.294 189.75,482.501 	"/>
	<polygon fill="#FFFFFF" points="391.982,505.631 431.311,482.838 471.312,505.407 431.311,528.424 	"/>
	<g id="Layer_1_1_">
		<g>
			<g>
				<path fill="#FFF221" d="M391.268,42.715l37.52,21.624l-37.54,21.683l-37.499-21.663L391.268,42.715 M391.268,41.167
					l-40.201,23.191l40.181,23.212l40.224-23.233L391.268,41.167L391.268,41.167z"/>
			</g>
			<polyline fill="none" stroke="#FFF221" stroke-width="1.3408" stroke-miterlimit="10" points="351.316,64.442 351.316,250.348 
				391.26,273.196 391.26,87.291 			"/>
			<polyline fill="none" stroke="#FFF221" stroke-width="1.3408" stroke-miterlimit="10" points="431.259,64.414 431.259,250.319 
				391.414,273.434 431.323,296.52 471.881,273.56 471.881,226.8 431.259,250.319 431.323,296.52 			"/>
			<polygon fill="none" stroke="#FFF221" stroke-width="1.3408" stroke-miterlimit="10" points="391.268,227.136 431.825,204.007 
				471.713,226.8 431.259,250.319 			"/>
			<polygon fill="none" stroke="#FFF221" stroke-width="1.3408" stroke-miterlimit="10" points="190.151,250.209 270.599,296.52 
				391.268,227.136 351.045,204.007 270.597,250.208 230.374,227.024 			"/>
			<path fill="none" stroke="#FFF221" stroke-width="1.3408" stroke-miterlimit="10" d="M270.934,342.441"/>
			<path fill="none" stroke="#FFF221" stroke-width="1.3408" stroke-miterlimit="10" d="M392.084,272.763"/>
			<polyline fill="none" stroke="#FFF221" stroke-width="1.3408" stroke-miterlimit="10" points="310.854,319.843 351.049,343.027 
				391.269,319.816 431.49,343.111 511.88,296.572 471.769,273.36 			"/>
			<polyline fill="none" stroke="#FFF221" stroke-width="1.3408" stroke-miterlimit="10" points="351.049,343.027 351.049,435.959 
				230.208,505.596 189.817,482.551 190.153,435.903 230.711,459.088 310.599,412.721 270.376,389.257 270.599,343.111 
				270.599,296.52 			"/>
			
				<line fill="none" stroke="#FFF221" stroke-width="1.3408" stroke-miterlimit="10" x1="190.153" y1="435.903" x2="270.557" y2="389.41"/>
			
				<line fill="none" stroke="#FFF221" stroke-width="1.3408" stroke-miterlimit="10" x1="230.459" y1="459.213" x2="230.459" y2="505.596"/>
			<polyline fill="none" stroke="#FFF221" stroke-width="1.3408" stroke-miterlimit="10" points="511.88,296.572 511.88,343.111 
				431.49,389.368 391.268,366.407 351.045,389.536 310.654,412.721 310.654,366.24 			"/>
			<polyline fill="none" stroke="#FFF221" stroke-width="1.3408" stroke-miterlimit="10" points="351.045,389.536 391.246,412.706 
				431.49,389.368 431.49,483.11 471.715,505.679 471.715,551.936 552.428,598.548 512.204,621.844 431.49,575.062 431.49,528.473 
				391.288,505.574 391.246,412.664 			"/>
			<polyline fill="none" stroke="#FFF221" stroke-width="1.3408" stroke-miterlimit="10" points="351.049,435.959 351.049,528.474 
				431.49,575.062 			"/>
			
				<line fill="none" stroke="#FFF221" stroke-width="1.3408" stroke-miterlimit="10" x1="391.33" y1="505.574" x2="431.489" y2="482.438"/>
			
				<line fill="none" stroke="#FFF221" stroke-width="1.3408" stroke-miterlimit="10" x1="431.49" y1="528.473" x2="471.715" y2="505.679"/>
			<polyline fill="none" stroke="#FFF221" stroke-width="1.3408" stroke-miterlimit="10" points="190.204,250.263 190.26,296.52 
				270.599,343.111 310.654,366.24 350.542,343.111 			"/>
			
				<line fill="none" stroke="#FFF221" stroke-width="1.3408" stroke-miterlimit="10" x1="391.414" y1="273.434" x2="270.934" y2="342.441"/>
		</g>
	</g>
</g>
</svg>
