<?xml version="1.0" encoding="utf-8"?>
<!-- Generator: Adobe Illustrator 16.0.0, SVG Export Plug-In . SVG Version: 6.00 Build 0)  -->
<!DOCTYPE svg PUBLIC "-//W3C//DTD SVG 1.1//EN" "http://www.w3.org/Graphics/SVG/1.1/DTD/svg11.dtd">
<svg version="1.1" xmlns="http://www.w3.org/2000/svg" xmlns:xlink="http://www.w3.org/1999/xlink" x="0px" y="0px"
	 width="566.93px" height="566.93px" viewBox="0 0 566.93 566.93" enable-background="new 0 0 566.93 566.93" xml:space="preserve">
<g id="Layer_1" display="none">
	<polyline display="inline" fill="#ED1C24" points="-221.432,70.279 -185.432,90.574 -256.669,161.605 -292.096,142.214 
		-221.432,70.279 	"/>
	<polygon display="inline" fill="#FFF221" points="-256.707,181.545 -185.916,141.054 -185.432,90.574 -256.669,161.605 	"/>
	<polygon display="inline" fill="#00F2FF" points="-291.423,160.703 -292.096,142.214 -256.669,161.605 -256.707,181.545 	"/>
	<rect y="298.062" display="inline" fill="#0091FF" width="566.93" height="268.867"/>
	<rect y="-1.938" display="inline" fill="#ED1C24" width="566.93" height="300.117"/>
</g>
<g id="Layer_2">
	<polygon fill="#0091FF" points="204,264.333 263.333,229.667 263.667,195 323.333,229.333 263.667,264.333 293,281.333 
		263.333,299 	"/>
	<polygon fill="#ED1C24" points="263.333,299 263.667,333.167 293.5,316 293,281.333 	"/>
	<polygon fill="#ED1C24" points="233.667,282.167 233.5,316.167 263,333.334 263.333,299 	"/>
	<polygon fill="#0091FF" points="293.5,282 293.5,316 233.875,350.625 264,368.375 353.125,315.875 	"/>
	<polygon fill="#0091FF" points="144,160 173.167,177.5 203.167,159.833 173.167,142.833 	"/>
	<polygon fill="#ED1C24" points="354,454.75 413.5,420.25 443.5,436.75 473.5,420 473.5,454.5 443.75,471.75 413.5,454.75 354,489 	
		"/>
	<polygon fill="#ED1C24" points="143.334,368.165 173.167,385.499 173.168,488.666 143.334,471.999 	"/>
	<polygon fill="#ED1C24" points="143.5,264.25 143.25,332.75 173.5,316.25 173.75,281.5 	"/>
	<polygon fill="#0091FF" points="173.5,316.25 173.75,281.5 204,264.333 233.667,281.666 233.5,328.499 203,332.999 	"/>
</g>
<g id="Layer_3">
	<g>
		<polyline fill="none" stroke="#FFF221" stroke-miterlimit="10" points="143.583,194.667 143.583,160 173.334,142.666 203.334,160 
			173.5,177.417 173.334,212 203.499,194.667 		"/>
		<polyline fill="none" stroke="#FFF221" stroke-miterlimit="10" points="263.75,194.75 323.5,229.375 263.375,264 293.375,281.25 
			263.375,298.625 203.5,264 233.5,246.749 143.583,194.667 173.5,177.417 203.499,194.667 203.531,125.375 323.5,56.156 
			353.531,73.438 353.25,108 263.5,160.167 263.5,229.166 233.5,246.656 233.469,142.781 353.334,73.542 		"/>
		<polyline fill="none" stroke="#FFF221" stroke-miterlimit="10" points="323.5,229.375 323.668,263.834 293.484,281.312 
			293.484,315.922 263.469,333.25 263.469,298.594 		"/>
		<polyline fill="none" stroke="#FFF221" stroke-miterlimit="10" points="203.5,264 203.5,333.25 173.75,316 143.625,333.125 
			173.498,350.563 353.726,454.458 383.727,437.145 413.473,419.902 443.531,437.188 473.5,419.844 413.469,385.219 
			353.616,419.793 233.478,350.562 233.498,281.356 		"/>
		<polyline fill="none" stroke="#FFF221" stroke-miterlimit="10" points="233.417,315.917 263.469,333.25 233.478,350.562 		"/>
		<polyline fill="none" stroke="#FFF221" stroke-miterlimit="10" points="173.498,350.563 143.5,367.875 173.375,385.25 
			203.531,367.938 203.469,437 233.25,420 		"/>
		<polyline fill="none" stroke="#FFF221" stroke-miterlimit="10" points="264,368 353.332,315.918 293.749,281.502 		"/>
		<polyline fill="none" stroke="#FFF221" stroke-miterlimit="10" points="353.771,454.416 353.771,488.982 413.458,454.501 
			443.499,471.812 473.479,454.477 473.5,419.844 		"/>
		<line fill="none" stroke="#FFF221" stroke-miterlimit="10" x1="353.75" y1="489" x2="203.501" y2="402.501"/>
		<polyline fill="none" stroke="#FFF221" stroke-miterlimit="10" points="203.562,264 173.582,281.25 113.5,246.667 143.5,229.334 
			173.5,246.626 203.583,229.167 		"/>
		<line fill="none" stroke="#FFF221" stroke-miterlimit="10" x1="143.5" y1="264" x2="143.5" y2="333.125"/>
		<line fill="none" stroke="#FFF221" stroke-miterlimit="10" x1="173.75" y1="316" x2="173.75" y2="281.25"/>
		<polyline fill="none" stroke="#FFF221" stroke-miterlimit="10" points="113.5,246.667 113.5,281.25 143.375,298.5 		"/>
		<line fill="none" stroke="#FFF221" stroke-miterlimit="10" x1="173.5" y1="177.417" x2="143.46" y2="160.044"/>
		<polyline fill="none" stroke="#FFF221" stroke-miterlimit="10" points="173.375,385.25 173.375,489.125 143.167,471.834 
			143.167,367.875 		"/>
		<line fill="none" stroke="#FFF221" stroke-miterlimit="10" x1="173.375" y1="489.125" x2="263.25" y2="437.5"/>
		<polyline fill="none" stroke="#FFF221" stroke-miterlimit="10" points="293.5,385.219 353.5,350.562 353.5,315.918 		"/>
	</g>
</g>
</svg>
